<?xml version="1.0" standalone="no"?>
<!DOCTYPE svg PUBLIC "-//W3C//DTD SVG 20010904//EN"
 "http://www.w3.org/TR/2001/REC-SVG-20010904/DTD/svg10.dtd">
<svg version="1.0" xmlns="http://www.w3.org/2000/svg"
 width="1875.000000pt" height="806.000000pt" viewBox="0 0 1875.000000 806.000000"
 preserveAspectRatio="xMidYMid meet">

<g transform="translate(0.000000,806.000000) scale(0.100000,-0.100000)"
fill="#000000" stroke="none">
<path d="M0 6851 l0 -1209 93 40 c112 49 191 69 412 108 93 17 220 39 280 51
141 26 401 37 485 19 l59 -13 36 32 c38 33 38 33 138 14 50 -9 76 -83 29 -83
-10 0 -34 -20 -55 -44 -42 -50 -85 -66 -124 -45 -13 7 -27 25 -30 40 -4 23
-11 27 -50 33 -126 17 -359 1 -568 -38 -38 -8 -104 -19 -145 -25 -253 -40
-416 -84 -506 -136 -31 -18 -44 -21 -47 -12 -3 6 -6 -1247 -6 -2786 l-1 -2797
5333 3 c2932 2 5374 4 5425 5 83 1 98 4 125 25 45 34 72 41 87 22 7 -8 19 -15
26 -15 8 0 14 -4 14 -8 0 -10 5 -11 220 -22 138 -8 2378 -8 2673 -1 19 0 30 8
37 23 7 20 15 12 12 -13 -1 -9 140 -11 172 -3 14 3 26 13 26 21 0 8 4 12 9 8
6 -3 14 3 20 12 6 10 11 14 11 9 0 -6 8 -1 18 10 20 21 56 104 45 104 -3 0 1
8 9 18 8 9 20 32 28 49 7 18 16 33 21 33 5 0 8 6 6 12 -1 7 5 14 13 14 8 1 17
3 20 4 3 1 41 4 85 6 81 5 129 18 153 41 16 15 42 17 42 3 0 -5 7 -6 17 -3 11
4 14 3 9 -5 -4 -7 -3 -12 3 -12 5 0 12 6 15 13 2 6 4 1 3 -13 -1 -17 3 -25 14
-24 10 1 16 -8 17 -25 2 -48 27 -126 47 -151 28 -35 101 -91 109 -83 3 3 6 1
6 -7 0 -10 3 -10 14 -1 10 8 16 9 21 1 4 -7 12 -7 26 0 11 6 24 8 29 5 6 -3
10 1 10 11 0 13 3 14 14 5 7 -6 20 -9 28 -6 9 4 28 -6 46 -24 29 -30 34 -31
116 -31 58 0 86 4 86 11 0 7 7 17 15 23 9 6 17 25 19 43 3 25 0 32 -16 36 -11
3 -17 10 -14 15 3 6 2 12 -3 14 -4 1 -12 14 -16 27 -6 20 -4 23 9 18 14 -6 20
2 18 24 0 3 8 11 20 18 11 7 17 8 14 2 -5 -7 4 -9 23 -7 17 2 32 -1 33 -5 2
-5 15 -2 30 5 24 13 31 12 70 -8 24 -12 42 -28 40 -34 -2 -7 0 -12 5 -12 12 0
12 -74 -1 -82 -8 -6 -7 -8 2 -8 8 0 12 -12 10 -35 -1 -19 1 -38 6 -42 4 -4
732 -10 1617 -11 l1609 -4 0 4031 0 4031 -9375 0 -9375 0 0 -1209z m14920
-5507 c41 -2 67 -9 84 -23 8 -7 21 -9 28 -5 7 4 10 4 6 -1 -4 -4 -4 -13 1 -19
5 -6 16 -36 25 -67 18 -62 28 -69 102 -69 41 0 71 -19 56 -36 -4 -4 0 -3 9 4
18 14 16 21 21 -95 3 -79 5 -83 39 -116 45 -43 55 -83 25 -91 -12 -3 -33 -6
-48 -6 -26 0 -34 -12 -29 -43 1 -5 -3 -6 -8 -3 -15 10 -24 -33 -10 -50 6 -8 9
-17 6 -20 -7 -8 -73 -8 -84 -1 -5 3 -29 1 -52 -5 -35 -9 -45 -8 -52 3 -7 12
-10 12 -18 1 -7 -11 -9 -10 -14 3 -5 10 1 19 16 26 l22 10 -22 -5 c-13 -2 -26
0 -29 5 -3 5 -12 9 -20 9 -9 0 -12 -5 -8 -12 4 -7 3 -8 -5 -4 -6 4 -26 9 -44
12 l-33 4 3 -80 c2 -48 -1 -80 -7 -80 -6 0 -10 -9 -10 -20 0 -25 -38 -50 -83
-56 -28 -3 -38 1 -49 19 -26 39 -31 66 -14 83 9 9 14 19 11 24 -3 4 2 13 10
20 8 7 15 18 15 24 0 7 8 21 18 32 31 32 33 63 9 108 -12 23 -25 42 -29 44 -9
4 1 32 24 61 10 13 18 39 18 58 0 38 -27 93 -46 93 -17 0 -51 34 -47 46 2 6
-3 17 -12 24 -8 7 -15 19 -15 27 0 10 -6 12 -21 8 -16 -5 -19 -4 -14 6 6 9 3
11 -8 6 -12 -4 -17 -1 -17 9 0 10 -6 14 -15 10 -13 -4 -14 -2 -5 14 6 11 15
20 21 20 6 0 7 5 4 10 -4 6 -11 8 -16 5 -5 -4 -9 -2 -9 3 0 6 7 13 16 16 12 5
13 10 6 19 -9 10 -1 17 33 29 40 15 43 15 38 1 -5 -12 -2 -15 9 -10 12 4 15 0
11 -16 -5 -22 -5 -22 10 -2 11 14 28 20 63 21 59 2 94 12 94 28 0 7 3 7 8 1 4
-5 18 -11 32 -11z m-5817 -869 c10 2 14 -1 10 -8 -4 -7 0 -8 12 -3 15 5 16 4
5 -9 -8 -10 -9 -15 -2 -15 6 0 20 -10 32 -22 11 -12 20 -17 20 -11 0 6 -7 16
-15 23 -8 7 -15 16 -15 21 0 5 7 9 15 9 8 0 15 -7 15 -16 0 -8 5 -12 11 -8 8
4 9 -1 4 -16 -6 -17 -4 -21 6 -14 12 6 12 5 0 -9 -11 -14 -11 -17 0 -18 8 0 5
-4 -6 -8 -12 -5 -30 -3 -46 5 -14 7 -36 10 -47 7 -16 -4 -22 -1 -22 11 0 9 -6
17 -12 18 -7 0 -18 2 -24 2 -6 1 -19 7 -28 15 -9 7 -16 10 -16 7 0 -4 -5 -4
-10 -1 -8 5 -7 12 1 22 11 13 14 12 21 -7 4 -12 12 -18 18 -15 6 4 7 11 4 17
-9 15 26 40 40 29 6 -5 19 -7 29 -6z m1561 -6 c-8 -14 16 -60 28 -53 5 4 8 -4
6 -17 -2 -16 1 -23 11 -21 9 2 11 -3 7 -13 -3 -9 -6 -30 -6 -46 0 -17 -4 -28
-10 -24 -5 3 -14 -9 -19 -27 -5 -18 -10 -28 -10 -21 -1 6 -10 9 -21 6 -10 -3
-18 -10 -17 -17 1 -6 -6 -10 -15 -10 -10 1 -18 -3 -18 -10 0 -6 -7 -2 -15 8
-12 16 -18 17 -27 8 -15 -15 -32 -16 -23 -2 3 6 2 10 -3 10 -5 0 -8 13 -7 29
1 23 -2 29 -17 26 -26 -5 -22 9 6 25 16 8 23 19 20 33 -2 11 -1 17 3 14 3 -4
14 3 24 15 14 16 16 24 8 35 -9 10 -6 13 15 13 18 0 25 4 20 11 -5 8 1 10 20
7 15 -3 24 -3 21 0 -2 3 0 11 6 19 14 16 23 17 13 2z m-148 -124 c-3 -20 -16
-31 -16 -13 0 13 8 28 16 28 1 0 1 -7 0 -15z m-6 -75 c0 -5 -4 -10 -10 -10 -5
0 -10 5 -10 10 0 6 5 10 10 10 6 0 10 -4 10 -10z m4666 -27 c0 -10 3 -30 7
-45 7 -26 6 -27 -30 -21 -28 5 -34 3 -28 -7 5 -9 4 -11 -3 -6 -7 4 -12 14 -12
22 0 8 4 13 9 10 5 -3 18 10 30 29 23 40 27 42 27 18z m374 -107 c0 -3 -4 -8
-10 -11 -5 -3 -10 -1 -10 4 0 6 5 11 10 11 6 0 10 -2 10 -4z"/>
<path d="M9072 461 c7 -12 17 -20 21 -18 10 3 10 22 0 22 -5 0 -14 4 -21 9
-11 7 -11 4 0 -13z"/>
</g>
</svg>
