<?xml version="1.0" standalone="no"?>
<!DOCTYPE svg PUBLIC "-//W3C//DTD SVG 20010904//EN"
 "http://www.w3.org/TR/2001/REC-SVG-20010904/DTD/svg10.dtd">
<svg version="1.0" xmlns="http://www.w3.org/2000/svg"
 width="2200.000000pt" height="1375.000000pt" viewBox="0 0 2200.000000 1375.000000"
 preserveAspectRatio="xMidYMid meet">

<g transform="translate(0.000000,1375.000000) scale(0.100000,-0.100000)"
fill="#000000" stroke="none">
<path d="M0 6875 l0 -6875 11000 0 11000 0 0 6875 0 6875 -11000 0 -11000 0 0
-6875z m17081 6315 l2 -395 -78 -3 c-123 -5 -80 8 58 17 4 1 7 177 7 393 0
215 2 389 4 387 3 -2 6 -182 7 -399z m3879 -70 l0 -150 -37 0 -38 1 33 14 32
14 0 136 c0 74 2 135 5 135 3 0 5 -67 5 -150z m-2586 -1830 c-5 -4 -47 -5 -94
-1 l-85 6 80 5 80 5 4 625 5 625 9 -628 c5 -358 6 -632 1 -637z m1305 -387 l1
-263 -92 0 c-106 0 -113 6 -15 12 37 3 69 7 72 9 4 5 12 276 16 549 l2 155 7
-100 c4 -55 8 -218 9 -362z m632 -1656 c-4 -4 -77 -4 -162 0 l-154 8 150 5
150 5 4 405 4 405 8 -410 c4 -225 4 -413 0 -418z m-2572 -635 c1 -111 -2 -134
-14 -139 -21 -7 -32 4 -17 19 9 9 13 98 14 317 2 300 2 303 9 121 3 -102 7
-245 8 -318z m3869 -172 l-3 -235 -90 -1 c-71 0 -75 0 -20 3 38 2 75 9 82 15
10 8 13 75 14 292 1 205 4 265 10 221 5 -33 8 -166 7 -295z m-2582 -3930 l-1
-35 -120 -1 c-78 0 -89 1 -30 3 50 2 100 5 113 8 l22 5 2 273 1 272 7 -245 c3
-135 6 -261 6 -280z m-3063 -806 c4 -5 69 -11 145 -14 l137 -7 -152 -1 -153
-2 2 318 2 317 6 -302 c3 -166 9 -305 13 -309z m1720 165 c103 -1 107 -2 57
-10 -30 -5 -86 -8 -125 -7 -70 3 -70 3 -73 33 l-3 30 16 -22 c15 -21 24 -23
128 -24z m3152 -1687 c114 -4 117 -9 8 -11 l-103 -1 0 268 c0 148 3 325 8 393
6 101 8 52 12 -261 l5 -385 70 -3z m-1672 -651 c-1 -1 -6 0 -12 4 -13 7 -14
119 -3 456 l7 244 5 -350 c3 -192 4 -352 3 -354z m172 5 c17 -1 -12 -4 -62 -4
-51 -1 -93 1 -93 6 0 6 83 6 155 -2z m-985 -935 c1 -233 4 -430 7 -437 3 -9
23 -14 57 -15 40 -1 46 -3 26 -9 -14 -4 -42 -8 -62 -9 l-38 -1 0 452 c0 248 2
449 5 447 2 -3 5 -195 5 -428z m3197 -533 c-2 -18 -4 -6 -4 27 0 33 2 48 4 33
2 -15 2 -42 0 -60z"/>
</g>
</svg>
