<?xml version="1.0" standalone="no"?>
<!DOCTYPE svg PUBLIC "-//W3C//DTD SVG 20010904//EN"
 "http://www.w3.org/TR/2001/REC-SVG-20010904/DTD/svg10.dtd">
<svg version="1.0" xmlns="http://www.w3.org/2000/svg"
 width="810.000000pt" height="464.000000pt" viewBox="0 0 810.000000 464.000000"
 preserveAspectRatio="xMidYMid meet">

<g transform="translate(0.000000,464.000000) scale(0.100000,-0.100000)"
fill="#000000" stroke="none">
<path d="M0 2320 l0 -2320 440 0 440 0 2 1062 c3 1172 -1 1088 65 1149 61 57
-28 54 1383 57 959 2 1319 0 1359 -8 36 -8 65 -23 92 -47 72 -65 69 -12 69
-1175 l0 -1038 330 0 330 0 0 838 c0 924 -1 904 62 969 64 66 -5 63 1423 63
1428 0 1359 3 1423 -63 63 -65 62 -45 62 -969 l0 -838 310 0 310 0 0 2320 0
2320 -312 0 -313 0 3 -1247 c2 -911 0 -1262 -8 -1301 -13 -58 -52 -112 -104
-140 -28 -16 -108 -17 -971 -19 -853 -2 -935 -1 -885 13 46 13 117 14 455 10
678 -10 888 -10 952 -2 45 7 67 5 77 -3 8 -7 20 -10 26 -6 7 4 83 10 170 14
172 7 187 12 234 75 21 27 21 30 21 1314 l0 1287 -1450 0 -1450 0 0 -1287 c0
-1284 0 -1287 21 -1314 44 -60 66 -68 197 -76 67 -5 165 -12 217 -17 81 -7 65
-8 -115 -7 -177 1 -215 4 -241 18 -40 22 -92 81 -101 116 -5 15 -8 600 -8
1300 l0 1272 -320 0 -320 0 0 -1087 c0 -1005 -1 -1090 -17 -1119 -22 -40 -81
-92 -116 -101 -35 -10 -2669 -10 -2704 0 -35 9 -94 61 -116 101 -16 29 -17
114 -17 1119 l0 1087 -452 0 -453 0 0 -2320z m5653 918 c41 -68 64 -98 80
-101 20 -4 20 -4 -3 -6 -14 0 -43 8 -64 19 -38 19 -39 19 -65 1 -14 -11 -37
-31 -51 -46 -14 -15 -33 -31 -44 -37 -17 -9 -18 -7 -12 48 14 123 16 130 38
131 25 2 38 19 38 51 0 12 4 22 10 22 5 0 7 8 3 18 -11 32 12 -1 70 -100z
m491 -13 c3 -10 1 -15 -7 -14 -6 1 -29 -6 -50 -15 -21 -9 -51 -19 -68 -23 -19
-3 -40 -20 -59 -46 -17 -23 -30 -37 -30 -31 0 19 62 84 79 84 10 0 35 11 55
25 20 13 36 22 36 19 0 -3 8 0 18 5 9 6 18 11 18 11 1 0 5 -7 8 -15z m-276
-171 c-4 -3 -12 5 -18 18 -12 22 -12 22 6 6 10 -10 15 -20 12 -24z m387 -8
c18 7 25 -111 24 -420 -1 -235 -13 -522 -17 -429 -2 41 -16 49 -30 18 -7 -14
-20 -25 -29 -25 -15 -1 -14 -3 5 -13 l23 -13 -21 -24 c-16 -18 -20 -20 -20 -7
0 14 -8 16 -47 11 -27 -4 -68 -13 -93 -21 -25 -8 -68 -15 -97 -14 -29 0 -55
-3 -57 -8 -3 -5 -27 -7 -52 -5 -37 3 -53 10 -74 34 -27 30 -63 38 -200 45 -76
4 -81 5 -77 13 7 12 -12 54 -22 48 -13 -8 -23 154 -19 309 l3 130 50 24 c48
23 49 24 27 34 -17 8 -29 7 -43 -1 -27 -17 -42 -5 -34 27 4 14 9 80 11 146 3
66 10 125 15 130 13 13 184 12 234 -3 85 -24 91 -24 110 -5 10 10 30 19 44 20
l26 2 -27 -20 c-16 -12 -28 -27 -28 -35 0 -8 -10 -14 -22 -14 -28 0 -14 -14
29 -28 24 -8 36 -7 52 4 12 9 25 12 31 9 5 -3 23 1 40 10 17 9 36 15 43 14 15
-3 69 11 82 21 6 4 29 11 52 15 22 3 49 13 60 20 10 8 22 10 27 5 5 -5 14 -6
21 -4z m560 -476 c2 -4 -15 -5 -40 -2 -28 3 -52 0 -62 -8 -10 -7 -6 -1 9 13
25 23 32 25 58 16 17 -6 32 -14 35 -19z m-70 -30 c3 -5 -1 -10 -9 -10 -9 0
-16 5 -16 10 0 6 4 10 9 10 6 0 13 -4 16 -10z m-565 -430 c0 -5 -8 -10 -17
-10 -15 0 -16 2 -3 10 19 12 20 12 20 0z m-426 -15 c-6 -16 -24 -21 -24 -7 0
11 11 22 21 22 5 0 6 -7 3 -15z m-526 -162 c-21 -2 -57 -2 -80 0 -24 2 -7 4
37 4 44 0 63 -2 43 -4z m185 0 c-24 -2 -62 -2 -85 0 -24 2 -5 4 42 4 47 0 66
-2 43 -4z"/>
<path d="M5710 2975 c0 -15 37 -22 55 -9 17 13 16 14 -18 14 -20 0 -37 -2 -37
-5z"/>
<path d="M5535 2890 c-59 -43 -66 -50 -60 -60 3 -4 17 2 33 15 15 13 41 35 57
49 41 35 19 32 -30 -4z"/>
<path d="M5717 2481 c-55 -32 -73 -48 -65 -57 11 -10 128 63 128 80 0 11 -15
6 -63 -23z"/>
<path d="M5995 2239 c-17 -4 -47 -10 -67 -13 -37 -7 -50 -27 -27 -42 13 -7
155 14 182 28 10 5 15 13 12 18 -3 5 3 11 12 13 14 4 13 5 -4 6 -13 0 -23 -5
-23 -11 0 -8 -3 -9 -8 -3 -9 12 -37 14 -77 4z"/>
<path d="M5799 2144 c-11 -14 -9 -15 16 -12 16 1 30 9 33 16 6 18 -33 15 -49
-4z"/>
<path d="M935 4627 c-3 -6 -4 -499 -3 -1094 3 -1075 3 -1082 24 -1109 11 -15
33 -37 48 -48 27 -21 29 -21 1386 -21 1357 0 1359 0 1386 21 15 11 37 33 48
48 21 27 21 32 21 1119 l0 1092 -1453 3 c-1160 2 -1454 0 -1457 -11z m2160
-1687 c-3 -5 -18 -9 -33 -9 l-27 1 30 8 c17 4 31 8 33 9 2 0 0 -3 -3 -9z"/>
<path d="M1010 2229 c-14 -6 -36 -20 -48 -32 -55 -51 -52 7 -52 -1137 l0
-1060 1455 0 1455 0 -2 1069 c-3 1063 -3 1070 -24 1097 -11 15 -33 37 -48 48
-27 21 -31 21 -1369 23 -878 1 -1351 -2 -1367 -8z"/>
<path d="M4635 1826 c-37 -16 -70 -52 -84 -89 -8 -19 -11 -302 -11 -883 l0
-854 1455 0 1455 0 -2 869 c-3 861 -3 870 -24 897 -11 15 -33 37 -48 48 -27
21 -31 21 -1369 23 -1103 2 -1347 0 -1372 -11z m1744 -1113 c0 -10 3 -32 7
-50 4 -22 -2 -48 -22 -92 l-27 -62 22 -20 c22 -21 41 -18 41 7 0 8 4 14 9 14
4 0 6 10 4 23 -2 14 6 33 21 51 22 25 26 26 32 12 15 -40 5 -166 -16 -191 -7
-8 -13 -29 -12 -45 1 -40 -26 -40 -34 0 -4 17 -11 30 -15 30 -5 0 -7 11 -3 25
3 14 3 25 -1 25 -12 0 -34 -34 -35 -52 0 -24 -32 -23 -61 1 -22 18 -25 18 -42
4 -25 -23 -31 -10 -12 27 15 30 15 33 0 51 -17 17 -16 20 10 50 15 18 41 62
58 98 49 105 75 137 76 94z m-213 -244 c-14 -11 -26 -28 -26 -37 0 -13 -2 -14
-12 -3 -11 10 -7 17 17 37 17 13 34 24 39 24 5 0 -3 -9 -18 -21z m-66 -73 c0
-3 -4 -8 -10 -11 -5 -3 -10 -1 -10 4 0 6 5 11 10 11 6 0 10 -2 10 -4z m170
-12 c0 -8 -5 -12 -10 -9 -6 4 -8 11 -5 16 9 14 15 11 15 -7z m-168 -30 c-24
-17 -39 -14 -27 5 3 6 16 11 28 11 l21 0 -22 -16z"/>
<path d="M6275 440 c3 -5 8 -10 11 -10 2 0 4 5 4 10 0 6 -5 10 -11 10 -5 0 -7
-4 -4 -10z"/>
<path d="M6335 440 c3 -5 8 -10 11 -10 2 0 4 5 4 10 0 6 -5 10 -11 10 -5 0 -7
-4 -4 -10z"/>
</g>
</svg>
