<?xml version="1.0" standalone="no"?>
<!DOCTYPE svg PUBLIC "-//W3C//DTD SVG 20010904//EN"
 "http://www.w3.org/TR/2001/REC-SVG-20010904/DTD/svg10.dtd">
<svg version="1.0" xmlns="http://www.w3.org/2000/svg"
 width="395.000000pt" height="422.000000pt" viewBox="0 0 395.000000 422.000000"
 preserveAspectRatio="xMidYMid meet">

<g transform="translate(0.000000,422.000000) scale(0.100000,-0.100000)"
fill="#000000" stroke="none">
<path d="M2490 3812 c0 -5 7 -15 15 -22 8 -7 15 -8 15 -2 0 5 -7 15 -15 22 -8
7 -15 8 -15 2z"/>
<path d="M1688 3425 c2 -19 6 -35 8 -35 2 0 4 16 4 35 0 19 -4 35 -8 35 -4 0
-6 -16 -4 -35z"/>
<path d="M1910 3439 c-15 -12 -20 -22 -13 -25 7 -3 2 -14 -13 -31 l-24 -26 57
-29 c67 -34 79 -43 64 -52 -21 -13 -11 -26 22 -26 19 0 44 10 62 25 18 15 23
22 11 18 -14 -4 -17 -2 -14 8 3 8 10 13 15 12 19 -4 0 48 -23 63 -27 18 -22
48 7 39 23 -8 25 8 3 29 -24 25 -122 21 -154 -5z m123 -99 c9 -11 17 -23 17
-26 0 -8 -49 30 -50 39 0 13 15 7 33 -13z"/>
<path d="M2240 3405 c0 -8 -9 -19 -20 -25 -11 -6 -20 -17 -20 -26 0 -8 -6 -17
-14 -20 -8 -3 -11 -15 -8 -30 3 -16 7 -21 12 -14 5 8 17 7 45 -4 20 -9 46 -16
57 -16 10 0 30 -7 43 -16 24 -16 25 -15 25 5 0 16 6 21 26 21 38 0 25 21 -31
49 -46 22 -48 25 -26 33 19 7 21 11 11 23 -7 8 -23 15 -36 15 -12 0 -26 5 -29
10 -9 15 -35 12 -35 -5z"/>
<path d="M1736 3384 c-9 -24 -7 -62 4 -69 6 -3 10 4 10 17 0 13 3 33 6 46 7
25 -11 31 -20 6z"/>
<path d="M2508 3268 c-3 -7 -2 -23 0 -35 4 -19 7 -21 18 -12 18 15 18 33 0 48
-11 9 -15 9 -18 -1z"/>
<path d="M1958 3145 c-21 -18 -38 -42 -38 -52 0 -10 -7 -31 -15 -47 -22 -43
-19 -56 15 -57 17 -1 33 -2 38 -3 4 -2 27 -8 52 -15 30 -9 73 -11 131 -7 l87
6 30 -31 c25 -26 30 -28 25 -11 -2 11 -13 29 -23 40 -17 18 -28 20 -97 15 -82
-6 -159 12 -195 44 -18 17 -25 83 -9 83 13 0 21 -40 8 -40 -7 0 -4 -5 6 -11
14 -8 22 -8 30 0 16 16 28 13 25 -6 -4 -24 44 -30 74 -9 12 9 32 16 43 16 11
0 27 5 35 11 11 7 2 8 -31 3 -37 -5 -57 -1 -98 17 -49 23 -56 32 -52 72 3 23
2 22 -41 -18z"/>
<path d="M2230 3137 c0 -19 27 -77 36 -77 2 0 0 8 -5 19 -6 10 -8 21 -5 24 3
3 -1 16 -10 29 -13 19 -16 20 -16 5z"/>
<path d="M1713 2943 c-9 -21 -16 -57 -16 -80 1 -35 -3 -43 -18 -43 -10 0 -21
-5 -24 -10 -4 -6 -11 -8 -16 -5 -5 4 -9 1 -9 -5 0 -7 -8 -9 -21 -5 -17 6 -20
4 -15 -12 3 -10 10 -38 15 -62 5 -24 15 -47 21 -51 16 -10 15 -22 -4 -32 -9
-5 -16 -18 -16 -28 0 -30 -19 -33 -26 -4 -4 17 -9 22 -14 14 -5 -7 -14 14 -23
51 l-15 64 -1 -62 c0 -35 -6 -65 -13 -69 -7 -5 -8 -3 -3 6 5 9 4 11 -3 6 -7
-4 -12 -22 -12 -39 0 -25 -3 -28 -10 -17 -8 12 -12 13 -19 2 -7 -11 -9 -11
-14 2 -12 30 -97 3 -97 -30 0 -8 -6 -14 -12 -14 -10 0 -10 -2 0 -9 17 -10 -44
-24 -62 -14 -6 4 -4 -2 4 -12 14 -17 13 -18 -3 -12 -10 4 -16 3 -13 -2 3 -5
-4 -11 -15 -14 -23 -6 -49 1 -49 13 0 4 -12 5 -26 2 -17 -3 -23 -9 -19 -19 4
-11 1 -13 -11 -9 -8 3 -23 -1 -32 -10 -11 -12 -17 -13 -20 -5 -3 9 -7 9 -18 0
-9 -8 -18 -8 -26 -1 -7 5 -21 7 -31 3 -17 -6 -17 -8 2 -30 28 -33 27 -50 -2
-23 -13 12 -30 22 -38 22 -8 0 -20 5 -26 11 -16 16 -29 4 -36 -31 -4 -16 -11
-30 -17 -30 -6 0 -8 4 -5 10 3 5 -6 12 -20 16 -19 5 -30 1 -39 -11 -7 -10 -19
-19 -27 -21 -8 -1 -23 -5 -33 -10 -17 -7 -19 -4 -13 34 l5 42 -24 -35 c-13
-20 -24 -40 -24 -44 0 -5 -6 -11 -14 -14 -8 -3 -17 -25 -21 -49 -4 -24 -12
-52 -19 -63 -13 -21 -35 -93 -42 -135 -3 -14 -7 -32 -10 -40 -3 -8 -10 -55
-15 -105 -5 -49 -11 -103 -14 -119 -7 -33 -50 -140 -70 -170 -23 -36 -93 -266
-110 -360 -20 -117 -21 -442 -1 -489 34 -80 125 -114 334 -124 151 -7 171 -15
190 -81 7 -22 12 -70 12 -108 0 -84 37 -257 80 -382 l33 -92 1261 2 1261 3 3
65 c2 36 1 88 -3 115 -6 49 -8 51 -82 105 -42 30 -124 101 -182 157 -104 103
-104 103 -109 158 -4 53 -3 56 31 88 29 26 40 48 62 127 15 52 33 144 41 205
8 60 23 142 34 181 11 39 20 101 20 140 0 60 -4 75 -30 114 -16 25 -30 56 -30
70 -1 37 -32 99 -81 160 -25 30 -56 71 -69 90 -13 19 -46 56 -72 82 l-48 47 0
69 c0 67 -2 72 -36 108 -38 38 -64 103 -64 156 0 16 -5 39 -11 51 -7 11 -14
37 -16 56 -3 20 -17 60 -32 90 l-26 55 -3 -82 c-2 -45 -7 -82 -11 -82 -5 0 -9
-6 -8 -12 0 -7 -1 -24 -2 -38 -1 -22 -4 -20 -21 18 -13 29 -25 42 -39 42 -11
0 -25 9 -31 20 -6 11 -17 20 -25 20 -8 0 -15 3 -15 8 -1 17 -67 83 -87 86 -12
3 -32 10 -44 16 -18 10 -24 9 -31 -4 -10 -19 -34 -21 -44 -4 -5 7 -3 8 7 3 8
-5 5 1 -5 13 -22 25 -51 30 -43 8 4 -10 0 -14 -13 -11 -10 2 -27 -5 -39 -16
-18 -17 -22 -18 -27 -5 -3 9 -12 16 -20 16 -8 0 -13 3 -12 8 2 11 -13 45 -29
64 -8 9 -21 45 -29 81 -8 36 -21 73 -28 82 -22 31 -28 -66 -10 -170 31 -178
41 -250 37 -258 -10 -17 -91 116 -113 186 -13 42 -17 43 -48 22 -19 -14 -24
-14 -49 2 -16 10 -31 22 -34 27 -4 5 -14 -5 -23 -22 -15 -30 -15 -35 3 -90 19
-55 19 -61 4 -111 l-15 -53 -68 124 c-37 67 -81 147 -99 176 -37 63 -38 68 -9
75 20 6 18 10 -29 59 -61 65 -96 149 -97 230 -1 32 -2 58 -4 58 -2 0 -10 -17
-19 -37z m-113 -443 c0 -5 -2 -10 -4 -10 -3 0 -8 5 -11 10 -3 6 -1 10 4 10 6
0 11 -4 11 -10z m980 -55 c0 -8 -2 -15 -4 -15 -2 0 -6 7 -10 15 -3 8 -1 15 4
15 6 0 10 -7 10 -15z m-314 -115 l40 -55 -6 -85 c-4 -47 -3 -95 2 -108 10 -28
-1 -104 -13 -96 -5 3 -9 17 -9 30 0 14 -11 58 -24 97 -28 84 -34 117 -42 218
-6 81 -6 81 52 -1z m-97 31 c17 -11 24 -81 7 -81 -7 0 -7 -3 -1 -8 16 -11 17
-42 2 -42 -19 0 -74 63 -69 78 2 7 10 12 18 12 8 0 14 10 14 25 0 27 6 30 29
16z m-1279 -5 c0 -3 -4 -8 -10 -11 -5 -3 -10 -1 -10 4 0 6 5 11 10 11 6 0 10
-2 10 -4z m1914 -914 c30 -27 57 -43 83 -47 81 -12 87 -21 93 -115 4 -72 9
-91 33 -124 30 -43 32 -71 14 -178 -9 -51 -19 -74 -42 -98 -27 -28 -35 -31
-74 -27 -24 3 -46 9 -50 14 -3 4 -25 21 -49 36 -24 15 -51 37 -60 47 -9 11
-24 20 -33 20 -10 0 -19 4 -21 8 -1 4 -18 18 -37 31 -50 36 -61 73 -61 206 0
114 0 116 33 168 19 28 41 64 50 78 23 39 66 32 121 -19z"/>
<path d="M1830 2890 c-12 -7 -11 -15 6 -45 25 -47 125 -160 186 -209 29 -24
48 -48 48 -60 0 -16 3 -17 12 -8 7 7 25 12 40 12 18 0 28 5 28 15 0 7 7 18 15
22 17 10 80 102 89 131 5 14 13 18 31 14 21 -4 25 -1 25 21 0 33 -31 39 -87
15 -44 -19 -109 -19 -223 0 -73 13 -100 27 -131 67 -18 24 -29 31 -39 25z"/>
<path d="M1525 2801 c-6 -11 9 -23 19 -14 9 9 7 23 -3 23 -6 0 -12 -4 -16 -9z"/>
<path d="M2367 2620 c6 -23 19 -26 26 -6 6 16 -1 26 -19 26 -7 0 -10 -8 -7
-20z"/>
<path d="M2416 2502 c-3 -5 1 -9 9 -9 8 0 12 4 9 9 -3 4 -7 8 -9 8 -2 0 -6 -4
-9 -8z"/>
<path d="M2840 2360 c0 -5 5 -10 10 -10 6 0 10 5 10 10 0 6 -4 10 -10 10 -5 0
-10 -4 -10 -10z"/>
</g>
</svg>
